<svg width="21" height="21" viewBox="0 0 21 21" fill="none" xmlns="http://www.w3.org/2000/svg">
<path d="M13.5625 4.09756C14.525 4.09756 15.3125 3.17561 15.3125 2.04878C15.3125 0.921951 14.525 0 13.5625 0C12.6 0 11.8125 0.921951 11.8125 2.04878C11.8125 3.17561 12.6 4.09756 13.5625 4.09756ZM4.375 10.7561C1.925 10.7561 0 13.0098 0 15.878C0 18.7463 1.925 21 4.375 21C6.825 21 8.75 18.7463 8.75 15.878C8.75 13.0098 6.825 10.7561 4.375 10.7561ZM4.375 19.4634C2.7125 19.4634 1.3125 17.8244 1.3125 15.878C1.3125 13.9317 2.7125 12.2927 4.375 12.2927C6.0375 12.2927 7.4375 13.9317 7.4375 15.878C7.4375 17.8244 6.0375 19.4634 4.375 19.4634ZM9.45 9.21951L11.55 6.76098L12.25 7.58049C13.3875 8.9122 14.875 9.73171 16.7125 9.73171V7.68293C15.4 7.68293 14.35 7.06829 13.5625 6.14634L11.9 4.2C11.4625 3.79024 11.025 3.58537 10.5 3.58537C9.975 3.58537 9.5375 3.79024 9.275 4.2L6.825 7.06829C6.475 7.47805 6.3 7.99024 6.3 8.50244C6.3 9.11707 6.475 9.62927 6.825 9.93659L9.625 12.8049V17.9268H11.375V11.5756L9.45 9.21951ZM16.625 10.7561C14.175 10.7561 12.25 13.0098 12.25 15.878C12.25 18.7463 14.175 21 16.625 21C19.075 21 21 18.7463 21 15.878C21 13.0098 19.075 10.7561 16.625 10.7561ZM16.625 19.4634C14.9625 19.4634 13.5625 17.8244 13.5625 15.878C13.5625 13.9317 14.9625 12.2927 16.625 12.2927C18.2875 12.2927 19.6875 13.9317 19.6875 15.878C19.6875 17.8244 18.2875 19.4634 16.625 19.4634Z" fill="black"/>
</svg>
