<svg width="41" height="40" viewBox="0 0 41 40" fill="none" xmlns="http://www.w3.org/2000/svg">
<g clip-path="url(#clip0_296_506)">
<rect x="0.5" width="40" height="40" rx="20" fill="#47F7B6"/>
<path d="M28.1 29L21.8 22.7C21.3 23.1 20.725 23.4167 20.075 23.65C19.425 23.8833 18.7333 24 18 24C16.1833 24 14.6458 23.3708 13.3875 22.1125C12.1292 20.8542 11.5 19.3167 11.5 17.5C11.5 15.6833 12.1292 14.1458 13.3875 12.8875C14.6458 11.6292 16.1833 11 18 11C19.8167 11 21.3542 11.6292 22.6125 12.8875C23.8708 14.1458 24.5 15.6833 24.5 17.5C24.5 18.2333 24.3833 18.925 24.15 19.575C23.9167 20.225 23.6 20.8 23.2 21.3L29.5 27.6L28.1 29ZM18 22C19.25 22 20.3125 21.5625 21.1875 20.6875C22.0625 19.8125 22.5 18.75 22.5 17.5C22.5 16.25 22.0625 15.1875 21.1875 14.3125C20.3125 13.4375 19.25 13 18 13C16.75 13 15.6875 13.4375 14.8125 14.3125C13.9375 15.1875 13.5 16.25 13.5 17.5C13.5 18.75 13.9375 19.8125 14.8125 20.6875C15.6875 21.5625 16.75 22 18 22Z" fill="#49454F"/>
</g>
<defs>
<clipPath id="clip0_296_506">
<rect x="0.5" width="40" height="40" rx="20" fill="white"/>
</clipPath>
</defs>
</svg>
